<svg width="208" height="37" viewBox="0 0 208 37" fill="none" xmlns="http://www.w3.org/2000/svg">
<g id="Frame 2" clip-path="url(#clip0)">
<rect width="208" height="37" fill="white"/>
<rect id="Rectangle 3" width="108" height="37" fill="#262321"/>
<path id="DOWNLOAD" d="M17.1064 23V13.0469H19.916C20.7819 13.0469 21.5475 13.2383 22.2129 13.6211C22.8783 14.0039 23.391 14.5485 23.751 15.2549C24.1156 15.9613 24.3001 16.7725 24.3047 17.6885V18.3242C24.3047 19.263 24.1224 20.0856 23.7578 20.792C23.3978 21.4984 22.8805 22.0407 22.2061 22.4189C21.5361 22.7972 20.7546 22.9909 19.8613 23H17.1064ZM18.4189 14.127V21.9268H19.7998C20.8115 21.9268 21.5977 21.6123 22.1582 20.9834C22.7233 20.3545 23.0059 19.459 23.0059 18.2969V17.7158C23.0059 16.5856 22.7393 15.7083 22.2061 15.084C21.6774 14.4551 20.9255 14.1361 19.9502 14.127H18.4189ZM33.9502 18.3447C33.9502 19.32 33.7861 20.1722 33.458 20.9014C33.1299 21.626 32.665 22.1797 32.0635 22.5625C31.4619 22.9453 30.7601 23.1367 29.958 23.1367C29.1742 23.1367 28.4792 22.9453 27.873 22.5625C27.2669 22.1751 26.7952 21.626 26.458 20.915C26.1253 20.1995 25.9544 19.3724 25.9453 18.4336V17.7158C25.9453 16.7588 26.1117 15.9134 26.4443 15.1797C26.777 14.446 27.2464 13.8854 27.8525 13.498C28.4632 13.1061 29.1605 12.9102 29.9443 12.9102C30.7419 12.9102 31.4437 13.1038 32.0498 13.4912C32.6605 13.874 33.1299 14.4323 33.458 15.166C33.7861 15.8952 33.9502 16.7451 33.9502 17.7158V18.3447ZM32.6445 17.7021C32.6445 16.5218 32.4076 15.6172 31.9336 14.9883C31.4596 14.3548 30.7965 14.0381 29.9443 14.0381C29.1149 14.0381 28.4609 14.3548 27.9824 14.9883C27.5085 15.6172 27.2646 16.4922 27.251 17.6133V18.3447C27.251 19.4886 27.4902 20.3887 27.9688 21.0449C28.4518 21.6966 29.1149 22.0225 29.958 22.0225C30.8057 22.0225 31.4619 21.7148 31.9268 21.0996C32.3916 20.4798 32.6309 19.5934 32.6445 18.4404V17.7021ZM38.0654 19.8623L38.2568 21.1748L38.5371 19.9922L40.5059 13.0469H41.6133L43.5342 19.9922L43.8076 21.1953L44.0195 19.8555L45.5645 13.0469H46.8838L44.4707 23H43.2744L41.2236 15.7471L41.0664 14.9883L40.9092 15.7471L38.7832 23H37.5869L35.1807 13.0469H36.4932L38.0654 19.8623ZM55.9961 23H54.6768L49.666 15.3301V23H48.3467V13.0469H49.666L54.6904 20.751V13.0469H55.9961V23ZM59.6465 21.9268H64.3633V23H58.3271V13.0469H59.6465V21.9268ZM73.0654 18.3447C73.0654 19.32 72.9014 20.1722 72.5732 20.9014C72.2451 21.626 71.7803 22.1797 71.1787 22.5625C70.5771 22.9453 69.8753 23.1367 69.0732 23.1367C68.2894 23.1367 67.5944 22.9453 66.9883 22.5625C66.3822 22.1751 65.9105 21.626 65.5732 20.915C65.2406 20.1995 65.0697 19.3724 65.0605 18.4336V17.7158C65.0605 16.7588 65.2269 15.9134 65.5596 15.1797C65.8923 14.446 66.3617 13.8854 66.9678 13.498C67.5785 13.1061 68.2757 12.9102 69.0596 12.9102C69.8571 12.9102 70.5589 13.1038 71.165 13.4912C71.7757 13.874 72.2451 14.4323 72.5732 15.166C72.9014 15.8952 73.0654 16.7451 73.0654 17.7158V18.3447ZM71.7598 17.7021C71.7598 16.5218 71.5228 15.6172 71.0488 14.9883C70.5749 14.3548 69.9118 14.0381 69.0596 14.0381C68.2301 14.0381 67.5762 14.3548 67.0977 14.9883C66.6237 15.6172 66.3799 16.4922 66.3662 17.6133V18.3447C66.3662 19.4886 66.6055 20.3887 67.084 21.0449C67.5671 21.6966 68.2301 22.0225 69.0732 22.0225C69.9209 22.0225 70.5771 21.7148 71.042 21.0996C71.5068 20.4798 71.7461 19.5934 71.7598 18.4404V17.7021ZM80.3799 20.4023H76.21L75.2734 23H73.9199L77.7207 13.0469H78.8691L82.6768 23H81.3301L80.3799 20.4023ZM76.6064 19.3223H79.9902L78.2949 14.667L76.6064 19.3223ZM84.0166 23V13.0469H86.8262C87.6921 13.0469 88.4577 13.2383 89.123 13.6211C89.7884 14.0039 90.3011 14.5485 90.6611 15.2549C91.0257 15.9613 91.2103 16.7725 91.2148 17.6885V18.3242C91.2148 19.263 91.0326 20.0856 90.668 20.792C90.3079 21.4984 89.7907 22.0407 89.1162 22.4189C88.4463 22.7972 87.6647 22.9909 86.7715 23H84.0166ZM85.3291 14.127V21.9268H86.71C87.7217 21.9268 88.5078 21.6123 89.0684 20.9834C89.6335 20.3545 89.916 19.459 89.916 18.2969V17.7158C89.916 16.5856 89.6494 15.7083 89.1162 15.084C88.5876 14.4551 87.8356 14.1361 86.8604 14.127H85.3291Z" fill="white"/>
<rect id="Rectangle 4" x="108.5" y="0.5" width="99" height="36" fill="white" stroke="#131313"/>
<path id="RESUME" d="M133.242 18.6172H131.039V23H129.062V11.625H133.062C134.375 11.625 135.388 11.9193 136.102 12.5078C136.815 13.0964 137.172 13.9479 137.172 15.0625C137.172 15.8229 136.987 16.4609 136.617 16.9766C136.253 17.487 135.742 17.8802 135.086 18.1562L137.641 22.8984V23H135.523L133.242 18.6172ZM131.039 17.0312H133.07C133.737 17.0312 134.258 16.8646 134.633 16.5312C135.008 16.1927 135.195 15.7318 135.195 15.1484C135.195 14.5391 135.021 14.0677 134.672 13.7344C134.328 13.401 133.812 13.2292 133.125 13.2188H131.039V17.0312ZM145.695 17.9219H141.023V21.4219H146.484V23H139.047V11.625H146.43V13.2188H141.023V16.3594H145.695V17.9219ZM154.039 20.0703C154.039 19.5703 153.862 19.1849 153.508 18.9141C153.159 18.6432 152.526 18.3698 151.609 18.0938C150.693 17.8177 149.964 17.5104 149.422 17.1719C148.385 16.5208 147.867 15.6719 147.867 14.625C147.867 13.7083 148.24 12.9531 148.984 12.3594C149.734 11.7656 150.706 11.4688 151.898 11.4688C152.69 11.4688 153.396 11.6146 154.016 11.9062C154.635 12.1979 155.122 12.6146 155.477 13.1562C155.831 13.6927 156.008 14.2891 156.008 14.9453H154.039C154.039 14.3516 153.852 13.888 153.477 13.5547C153.107 13.2161 152.576 13.0469 151.883 13.0469C151.237 13.0469 150.734 13.1849 150.375 13.4609C150.021 13.737 149.844 14.1224 149.844 14.6172C149.844 15.0339 150.036 15.3828 150.422 15.6641C150.807 15.9401 151.443 16.2109 152.328 16.4766C153.214 16.737 153.924 17.0365 154.461 17.375C154.997 17.7083 155.391 18.0938 155.641 18.5312C155.891 18.9635 156.016 19.4714 156.016 20.0547C156.016 21.0026 155.651 21.7578 154.922 22.3203C154.198 22.8776 153.214 23.1562 151.969 23.1562C151.146 23.1562 150.388 23.0052 149.695 22.7031C149.008 22.3958 148.471 21.974 148.086 21.4375C147.706 20.901 147.516 20.276 147.516 19.5625H149.492C149.492 20.2083 149.706 20.7083 150.133 21.0625C150.56 21.4167 151.172 21.5938 151.969 21.5938C152.656 21.5938 153.172 21.4557 153.516 21.1797C153.865 20.8984 154.039 20.5286 154.039 20.0703ZM166.07 11.625V19.2266C166.07 20.4349 165.682 21.3932 164.906 22.1016C164.135 22.8047 163.107 23.1562 161.82 23.1562C160.518 23.1562 159.484 22.8099 158.719 22.1172C157.953 21.4193 157.57 20.4531 157.57 19.2188V11.625H159.539V19.2344C159.539 19.9948 159.732 20.5755 160.117 20.9766C160.503 21.3776 161.07 21.5781 161.82 21.5781C163.341 21.5781 164.102 20.776 164.102 19.1719V11.625H166.07ZM170.75 11.625L174.031 20.3438L177.305 11.625H179.859V23H177.891V19.25L178.086 14.2344L174.727 23H173.312L169.961 14.2422L170.156 19.25V23H168.188V11.625H170.75ZM188.852 17.9219H184.18V21.4219H189.641V23H182.203V11.625H189.586V13.2188H184.18V16.3594H188.852V17.9219Z" fill="#292928"/>
</g>
<defs>
<clipPath id="clip0">
<rect width="208" height="37" fill="white"/>
</clipPath>
</defs>
</svg>
